<?xml version="1.0" encoding="UTF-8" standalone="yes"?>
<!-- Created with sK1/UniConvertor (http://sk1project.org/) -->
<svg xmlns="http://www.w3.org/2000/svg" xmlns:xlink="http://www.w3.org/1999/xlink"
  width="595.276pt" height="841.89pt" viewBox="0 0 595.276 841.89"
  fill-rule="evenodd">
<g>
<g>
<path style="stroke:none; fill:#ffffff" d="M 361.013 438.687C 400.621 438.806 432.898 458.733 432.82 483.042C 432.742 507.341 400.363 527.068 360.734 526.944C 321.105 526.823 288.854 506.892 288.93 482.587C 289.006 458.286 321.384 438.562 361.013 438.687"/>
<path style="stroke:none; fill:#e23941" d="M 403.43 465.058L 403.609 465.28C 405.934 467.905 407.746 470.764 408.973 473.784C 410.148 476.708 410.783 479.792 410.777 482.972C 410.77 483.991 410.699 485.007 410.559 486.007C 410.422 487.038 410.217 488.038 409.963 489.026L 409.895 489.294L 409.621 489.288L 400.705 489.275L 400.383 489.284L 400.344 488.962L 398.039 468.4L 398.01 468.169L 398.219 468.056L 403.18 465.207L 403.43 465.058zM 397.957 504.929C 398.348 504.997 398.42 505.202 398.156 505.564C 393.484 509.167 387.707 512.077 381.207 514.069C 374.957 515.974 368.043 517.034 360.769 517.009C 352.956 516.983 345.547 515.72 338.952 513.487C 332.094 511.163 326.125 507.8 321.472 503.698L 321.291 503.532L 321.379 503.304L 323.158 498.87L 323.246 498.65L 335.466 498.683L 335.52 498.968L 336.594 504.548L 365.738 504.636L 366.012 491.814L 366.018 491.462L 366.369 491.462L 377.844 491.53L 377.477 477.919L 377.463 477.561L 377.824 477.558L 381.506 477.564L 381.838 477.556L 381.852 477.89L 383.785 504.646L 397.957 504.929zM 360.978 448.618C 361.31 448.62 361.652 448.618 361.984 448.628C 362.316 448.632 362.648 448.645 362.961 448.654L 363.322 448.667L 363.289 457.077L 367.496 457.092L 367.527 448.933L 367.918 448.977C 368.668 449.052 369.441 449.136 370.191 449.233C 370.945 449.331 371.695 449.448 372.424 449.566L 372.717 449.614L 372.707 454.286L 376.955 454.304L 376.969 450.474L 377.398 450.581C 381.812 451.65 385.93 453.144 389.684 454.968C 393.478 456.821 396.877 459.03 399.797 461.519C 400.113 461.897 400.047 462.107 399.559 462.141L 349.47 461.984L 348.879 483.982C 348.734 484.45 348.493 484.48 348.19 484.069L 341.647 461.96L 322.307 461.9C 321.904 461.796 321.75 461.607 322.082 461.278C 325.036 458.778 328.5 456.569 332.365 454.729C 336.169 452.905 340.368 451.438 344.838 450.402L 345.273 450.305L 345.264 454.13L 349.304 454.143L 349.318 449.826L 349.323 449.526L 349.621 449.48C 350.329 449.367 351.042 449.263 351.774 449.177C 352.487 449.084 353.2 449.006 353.933 448.938L 354.314 448.899L 354.304 457.046L 358.513 457.06L 358.547 448.651L 358.879 448.64C 359.23 448.635 359.572 448.622 359.924 448.618C 360.275 448.612 360.627 448.612 360.978 448.618zM 311.865 486.091C 311.599 486.276 311.379 486.237 311.198 485.964C 311.127 485.407 311.066 484.86 311.027 484.327C 310.993 483.78 310.983 483.226 310.98 482.655C 310.988 479.53 311.618 476.501 312.785 473.62C 313.978 470.65 315.756 467.849 318.012 465.261L 318.197 465.038L 318.457 465.192L 322.048 467.3L 322.351 467.48L 322.175 467.788"/>
<path style="stroke:none; fill:#065592" d="M 360.998 442.727C 397.375 442.837 426.988 460.944 426.922 483.019C 426.852 505.105 397.125 523.015 360.739 522.898C 324.367 522.79 294.763 504.685 294.824 482.609C 294.902 460.526 324.621 442.614 360.998 442.727zM 360.856 449.175C 361.512 449.177 362.176 449.185 362.84 449.206L 362.815 457.632L 367.727 457.649L 367.756 449.526C 369.279 449.677 370.773 449.868 372.242 450.119L 372.223 454.846L 377.184 454.862L 377.199 451.122C 386.008 453.267 393.703 457.079 399.441 461.991L 349.006 461.831L 348.408 484.167L 341.791 461.812L 322.188 461.75C 328.022 456.821 335.837 453.029 344.799 450.954L 344.792 454.69L 349.538 454.706L 349.553 450.028C 350.959 449.804 352.385 449.626 353.84 449.487L 353.81 457.605L 358.742 457.616L 358.767 449.189C 359.46 449.177 360.153 449.172 360.856 449.175zM 403.23 465.71C 407.727 470.822 410.309 476.802 410.285 483.171C 410.281 485.202 410.008 487.198 409.494 489.138L 400.578 489.128L 398.273 468.56L 403.23 465.71zM 397.824 505.485C 388.707 512.497 375.412 516.911 360.647 516.853C 344.785 516.814 330.642 511.628 321.594 503.63L 323.359 499.206L 335.056 499.241L 336.182 505.114L 365.949 505.202L 366.246 492.019L 378.082 492.093L 377.711 478.11L 381.383 478.11L 383.322 505.187L 397.824 505.485zM 311.43 486.12C 311.289 485.046 311.211 483.962 311.208 482.86C 311.228 476.591 313.762 470.725 318.151 465.695L 321.752 467.81L 311.43 486.12zM 347.927 452.815L 347.932 452.827L 346.403 452.824L 346.4 452.812L 346.377 452.817L 346.389 448.835C 345.871 448.938 345.358 449.052 344.846 449.172L 344.809 449.177C 324.714 453.857 310.137 467.18 310.08 482.863C 310.075 484.499 310.234 486.116 310.539 487.702L 307.99 492.224C 306.843 489.216 306.24 486.071 306.252 482.827C 306.315 462.346 330.908 445.712 360.983 445.806C 391.07 445.903 415.549 462.683 415.49 483.163C 415.477 485.202 415.23 487.198 414.758 489.138L 410.676 489.138C 411.148 487.198 411.414 485.202 411.408 483.179C 411.467 467.126 396.281 453.452 375.477 448.954L 375.477 452.905L 373.875 452.905L 373.879 448.632C 371.383 448.156 368.805 447.805 366.184 447.607L 366.148 455.845L 364.547 455.845L 364.572 447.497C 363.342 447.434 362.111 447.395 360.861 447.39C 359.611 447.388 358.361 447.421 357.131 447.483L 357.097 455.822L 355.495 455.817L 355.52 447.567C 352.936 447.756 350.407 448.075 347.959 448.523L 347.94 448.523L 347.927 452.815zM 321.035 505.026C 330.3 513.265 344.613 518.585 360.642 518.64C 376.5 518.689 390.715 513.562 400.031 505.534L 404.266 505.622C 394.24 514.515 378.459 520.251 360.764 520.193C 342.853 520.134 326.935 514.167 316.989 505.026L 321.02 505.056"/>
<path style="stroke:none; fill:#ffffff" d="M 328.109 468.935L 319.885 464.592L 339.89 464.646L 350.007 497.575L 350.271 497.566L 351.115 464.569L 380.432 464.655L 380.809 473.493L 363.102 473.505L 363.082 479.263L 375.047 479.426L 375.129 487.712L 362.941 487.692L 362.84 501.042L 338.005 500.968L 336.84 495.261L 321.693 495.212L 319.021 500.886L 305.671 500.843L 324.147 468.923L 328.109 468.935zM 335.492 488.737L 332.451 473.964L 331.721 473.947L 324.766 488.708"/>
<path style="stroke:#000000; stroke-width:1.25; fill:#ffffff" d="M 383.039 464.722L 401.213 464.782L 392.359 469.016L 395.828 469.079L 398.504 491.976L 414.012 492.067L 415.953 501.163L 385.367 501.11"/>
</g>
</g>
</svg>